<?xml version="1.0" encoding="UTF-8" standalone="no"?>
<!DOCTYPE svg PUBLIC "-//W3C//DTD SVG 1.1//EN" "http://www.w3.org/Graphics/SVG/1.1/DTD/svg11.dtd">
<svg xmlns="http://www.w3.org/2000/svg" version="1.1" viewBox="0.00 0.00 748.00 749.00">
<g stroke-width="2.00" fill="none" stroke-linecap="butt">
<path stroke="#809c5a" vector-effect="non-scaling-stroke" d="
  M 407.20 212.85
  Q 396.97 219.00 387.09 228.02"
/>
<path stroke="#ff8a52" vector-effect="non-scaling-stroke" d="
  M 351.28 230.21
  Q 360.96 223.30 370.71 217.19
  Q 370.88 217.08 371.24 217.11
  Q 371.71 217.14 372.07 216.85
  L 381.01 209.69"
/>
<path stroke="#ff8a52" vector-effect="non-scaling-stroke" d="
  M 289.13 271.51
  L 256.05 292.89"
/>
<path stroke="#805bab" vector-effect="non-scaling-stroke" d="
  M 437.48 225.69
  C 431.56 227.97 427.85 231.55 423.21 234.84
  A 4.30 4.29 36.4 0 1 419.42 235.41
  L 407.34 231.46"
/>
<path stroke="#008dba" vector-effect="non-scaling-stroke" d="
  M 407.34 231.46
  Q 402.98 229.72 398.69 229.60"
/>
<path stroke="#809c5a" vector-effect="non-scaling-stroke" d="
  M 269.29 319.48
  L 248.69 335.21"
/>
<path stroke="#805bab" vector-effect="non-scaling-stroke" d="
  M 486.15 272.56
  Q 479.19 277.48 473.50 283.48"
/>
<path stroke="#bfa53f" vector-effect="non-scaling-stroke" d="
  M 355.13 462.44
  Q 347.84 460.03 340.87 459.46"
/>
<path stroke="#008dba" vector-effect="non-scaling-stroke" d="
  M 306.62 421.13
  Q 293.73 410.98 284.96 397.06
  A 0.78 0.78 0.0 0 0 283.70 396.97
  Q 282.44 398.49 280.80 399.78
  Q 279.38 400.90 277.94 402.49
  Q 274.92 405.82 270.11 407.51"
/>
<path stroke="#807bb2" vector-effect="non-scaling-stroke" d="
  M 449.21 232.79
  Q 444.42 239.63 436.41 244.24"
/>
<path stroke="#807bb2" vector-effect="non-scaling-stroke" d="
  M 407.05 231.66
  Q 407.29 231.58 407.34 231.46"
/>
<path stroke="#bf6491" vector-effect="non-scaling-stroke" d="
  M 497.65 297.61
  L 498.51 304.92
  Q 498.56 305.34 498.50 305.76
  L 498.33 307.05"
/>
<path stroke="#ff8a52" vector-effect="non-scaling-stroke" d="
  M 498.33 307.05
  L 485.74 318.49"
/>
<path stroke="#008dba" vector-effect="non-scaling-stroke" d="
  M 495.69 384.26
  L 494.41 384.27
  A 0.80 0.78 -77.8 0 0 493.69 384.75
  Q 489.25 395.19 483.67 405.04
  C 481.45 408.95 478.42 412.33 475.64 415.99
  Q 471.56 421.36 469.20 423.91
  Q 457.92 436.12 443.67 444.78
  C 440.48 446.72 436.60 448.45 433.04 450.38
  Q 428.16 453.04 424.92 454.24
  Q 417.95 456.83 407.98 459.68
  Q 399.72 462.05 393.48 462.34
  C 392.74 462.38 391.91 462.94 391.10 462.87
  Q 387.01 462.56 383.15 463.51
  A 0.53 0.53 0.0 0 1 382.50 462.92
  Q 382.57 462.44 383.04 462.04
  Q 392.41 453.86 402.10 445.57
  A 0.41 0.41 0.0 0 0 401.76 444.86
  Q 401.09 444.98 400.96 444.29"
/>
<path stroke="#807bb2" vector-effect="non-scaling-stroke" d="
  M 273.04 371.41
  L 257.75 383.18"
/>
<path stroke="#ff8a52" vector-effect="non-scaling-stroke" d="
  M 348.61 443.23
  Q 344.45 447.76 336.96 454.21
  Q 334.93 455.96 334.69 457.62"
/>
<path stroke="#008dba" vector-effect="non-scaling-stroke" d="
  M 467.67 248.03
  L 455.15 258.11
  Q 454.71 258.47 455.12 258.88
  Q 463.78 267.46 469.81 277.64"
/>
<path stroke="#008dba" vector-effect="non-scaling-stroke" d="
  M 502.47 360.70
  Q 498.04 362.64 496.59 364.08
  Q 488.91 371.68 479.39 377.97"
/>
<path stroke="#809c5a" vector-effect="non-scaling-stroke" d="
  M 504.65 334.05
  Q 502.66 333.77 500.72 335.50
  Q 495.41 340.24 489.94 344.82
  Q 488.05 346.40 487.48 348.32
  Q 486.64 351.14 486.25 355.23
  Q 485.75 360.37 482.46 369.75"
/>
<path stroke="#3f7599" vector-effect="non-scaling-stroke" d="
  M 354.30 462.93
  Q 355.19 461.40 355.13 462.44"
/>
<path stroke="#809c5a" vector-effect="non-scaling-stroke" d="
  M 355.13 462.44
  L 373.45 446.92"
/>
<path stroke="#805bab" vector-effect="non-scaling-stroke" d="
  M 314.03 426.92
  L 300.45 439.13"
/>
<path stroke="#805bab" vector-effect="non-scaling-stroke" d="
  M 267.68 337.70
  Q 265.95 339.65 263.66 340.96
  Q 260.55 342.73 259.36 343.66
  Q 254.79 347.20 249.49 350.17"
/>
<path stroke="#bfa53f" vector-effect="non-scaling-stroke" d="
  M 504.95 326.87
  Q 504.15 326.94 503.29 328.13
  Q 502.78 328.84 502.66 327.98
  L 499.67 307.44
  Q 499.57 306.81 498.93 306.80
  Q 498.43 306.80 498.33 307.05"
/>
</g>
<path fill="#ffcb00" d="
  M 407.20 212.85
  Q 396.97 219.00 387.09 228.02
  Q 370.46 227.42 366.00 228.27
  Q 358.93 229.60 351.28 230.21
  Q 360.96 223.30 370.71 217.19
  Q 370.88 217.08 371.24 217.11
  Q 371.71 217.14 372.07 216.85
  L 381.01 209.69
  Q 383.30 207.86 386.33 209.01
  Q 388.55 209.85 389.88 209.86
  Q 392.92 209.90 395.97 209.85
  Q 396.41 209.84 396.78 210.09
  Q 398.47 211.25 400.51 211.71
  A 1.12 1.11 -57.6 0 0 401.45 211.50
  Q 409.74 205.20 412.84 202.61
  C 415.97 199.98 418.95 203.20 416.55 205.58
  Q 412.69 209.40 407.20 212.85
  Z"
/>
<path fill="#ff49a3" d="
  M 381.01 209.69
  L 372.07 216.85
  Q 371.71 217.14 371.24 217.11
  Q 370.88 217.08 370.71 217.19
  Q 360.96 223.30 351.28 230.21
  Q 312.91 240.75 289.13 271.51
  L 256.05 292.89
  L 261.94 279.81
  A 0.55 0.54 17.9 0 0 261.55 279.06
  Q 258.98 278.55 257.30 280.51
  A 1.43 1.43 0.0 0 1 254.78 279.64
  Q 254.71 277.99 256.09 276.82
  Q 261.90 271.91 267.68 266.93
  C 273.21 262.17 279.53 253.60 284.01 248.94
  Q 309.55 222.39 345.67 213.21
  Q 345.94 213.14 349.04 212.64
  C 350.67 212.38 352.01 211.63 353.49 211.43
  Q 366.83 209.57 381.01 209.69
  Z"
/>
<path fill="#006cb3" d="
  M 407.20 212.85
  Q 418.26 216.14 428.49 220.45
  Q 433.34 222.49 437.48 225.69
  C 431.56 227.97 427.85 231.55 423.21 234.84
  A 4.30 4.29 36.4 0 1 419.42 235.41
  L 407.34 231.46
  Q 402.98 229.72 398.69 229.60
  L 387.09 228.02
  Q 396.97 219.00 407.20 212.85
  Z"
/>
<path fill="#ff49a3" d="
  M 449.21 232.79
  Q 444.42 239.63 436.41 244.24
  Q 430.53 240.75 424.25 237.50
  Q 422.87 236.79 419.56 235.91
  Q 417.44 235.36 414.83 234.16
  Q 413.08 233.36 407.05 231.66
  Q 407.29 231.58 407.34 231.46
  L 419.42 235.41
  A 4.30 4.29 36.4 0 0 423.21 234.84
  C 427.85 231.55 431.56 227.97 437.48 225.69
  Q 440.45 227.39 443.61 228.89
  Q 446.12 230.08 447.78 228.76
  Q 456.66 221.65 465.66 214.72
  C 466.99 213.69 468.56 213.78 469.32 215.33
  A 1.20 1.19 -32.5 0 1 468.99 216.78
  L 449.21 232.79
  Z"
/>
<path fill="#00adc0" d="
  M 407.34 231.46
  Q 407.29 231.58 407.05 231.66
  L 398.69 229.60
  Q 402.98 229.72 407.34 231.46
  Z"
/>
<path fill="#00adc0" d="
  M 449.21 232.79
  Q 450.82 233.94 452.14 234.74
  C 457.66 238.08 463.04 243.43 467.67 248.03
  L 455.15 258.11
  Q 454.71 258.47 455.12 258.88
  Q 463.78 267.46 469.81 277.64
  Q 460.28 263.68 447.55 252.92
  C 444.64 250.46 439.90 247.61 436.41 244.24
  Q 444.42 239.63 449.21 232.79
  Z"
/>
<path fill="#006cb3" d="
  M 467.67 248.03
  C 474.06 254.56 482.08 263.68 486.15 272.56
  Q 479.19 277.48 473.50 283.48
  L 469.81 277.64
  Q 463.78 267.46 455.12 258.88
  Q 454.71 258.47 455.15 258.11
  L 467.67 248.03
  Z"
/>
<path fill="#7e7e7e" d="
  M 365.14 407.22
  C 339.07 402.38 318.88 385.57 310.03 360.24
  Q 306.65 350.57 306.22 340.01
  C 305.17 313.87 318.94 289.02 341.51 275.92
  Q 371.12 258.74 405.25 271.45
  Q 407.24 272.19 410.55 274.01
  Q 411.12 274.32 410.66 274.78
  L 370.33 315.40
  Q 369.82 315.91 369.42 315.32
  C 359.24 300.50 337.46 305.37 333.75 322.55
  C 331.11 334.81 340.49 345.74 352.81 346.20
  C 362.99 346.57 367.34 341.42 375.21 333.47
  Q 389.24 319.33 403.25 305.15
  Q 403.74 304.66 404.23 305.14
  L 429.54 330.10
  Q 429.84 330.39 429.54 330.69
  L 407.60 352.37
  Q 407.16 352.80 406.82 352.29
  C 397.52 338.68 374.27 342.49 371.00 359.23
  C 366.78 380.88 392.13 391.59 406.39 376.64
  Q 426.88 355.18 448.34 334.69
  Q 448.62 334.42 448.62 334.80
  Q 448.92 372.46 420.16 394.14
  Q 395.35 412.84 365.14 407.22
  Z"
/>
<path fill="#ffcb00" d="
  M 289.13 271.51
  C 285.23 278.88 280.34 286.16 277.38 293.01
  Q 271.73 306.09 269.29 319.48
  L 248.69 335.21
  Q 248.08 329.43 249.10 322.01
  Q 251.46 304.83 256.05 292.89
  L 289.13 271.51
  Z"
/>
<path fill="#ff49a3" d="
  M 486.15 272.56
  Q 491.54 281.00 495.27 291.18
  A 1.25 1.25 0.0 0 0 497.27 291.69
  L 506.92 283.11
  A 1.09 1.08 -47.3 0 1 508.28 283.05
  C 510.00 284.34 510.01 285.55 508.36 286.93
  Q 501.78 292.44 497.65 297.61
  L 498.51 304.92
  Q 498.56 305.34 498.50 305.76
  L 498.33 307.05
  L 485.74 318.49
  Q 482.70 300.26 473.50 283.48
  Q 479.19 277.48 486.15 272.56
  Z"
/>
<path fill="#7e7e7e" d="
  M 497.65 297.61
  Q 502.35 311.58 503.77 325.75
  Q 503.89 326.91 504.95 326.87
  Q 504.15 326.94 503.29 328.13
  Q 502.78 328.84 502.66 327.98
  L 499.67 307.44
  Q 499.57 306.81 498.93 306.80
  Q 498.43 306.80 498.33 307.05
  L 498.50 305.76
  Q 498.56 305.34 498.51 304.92
  L 497.65 297.61
  Z"
/>
<path fill="#ffcb00" d="
  M 504.95 326.87
  L 507.05 325.59
  Q 507.44 325.34 507.62 324.92
  Q 508.71 322.35 511.76 322.63
  Q 512.51 322.71 512.92 322.14
  Q 513.20 321.74 513.62 322.00
  Q 515.92 323.45 514.98 326.31
  Q 514.84 326.76 514.40 326.93
  Q 511.92 327.91 509.94 329.73
  C 508.30 331.23 506.23 332.15 504.65 334.05
  Q 502.66 333.77 500.72 335.50
  Q 495.41 340.24 489.94 344.82
  Q 488.05 346.40 487.48 348.32
  Q 486.64 351.14 486.25 355.23
  Q 485.75 360.37 482.46 369.75
  Q 484.60 361.27 486.03 352.64
  Q 487.04 346.57 486.82 339.80
  Q 486.48 329.29 485.74 318.49
  L 498.33 307.05
  Q 498.43 306.80 498.93 306.80
  Q 499.57 306.81 499.67 307.44
  L 502.66 327.98
  Q 502.78 328.84 503.29 328.13
  Q 504.15 326.94 504.95 326.87
  Z"
/>
<path fill="#006cb3" d="
  M 269.29 319.48
  L 267.68 337.70
  Q 265.95 339.65 263.66 340.96
  Q 260.55 342.73 259.36 343.66
  Q 254.79 347.20 249.49 350.17
  Q 248.06 341.78 248.69 335.21
  L 269.29 319.48
  Z"
/>
<path fill="#006cb3" d="
  M 504.65 334.05
  Q 503.76 335.74 504.84 338.02
  A 0.82 0.72 -57.7 0 1 504.90 338.41
  L 502.47 360.70
  Q 498.04 362.64 496.59 364.08
  Q 488.91 371.68 479.39 377.97
  L 482.46 369.75
  Q 485.75 360.37 486.25 355.23
  Q 486.64 351.14 487.48 348.32
  Q 488.05 346.40 489.94 344.82
  Q 495.41 340.24 500.72 335.50
  Q 502.66 333.77 504.65 334.05
  Z"
/>
<path fill="#ff49a3" d="
  M 267.68 337.70
  Q 267.70 355.27 273.04 371.41
  L 257.75 383.18
  L 256.50 379.94
  A 1.08 1.08 0.0 0 0 254.82 379.49
  L 249.25 383.93
  A 1.34 1.33 35.5 0 1 247.97 384.14
  C 245.88 383.41 245.79 381.71 247.39 380.37
  Q 250.75 377.55 254.01 374.98
  A 1.47 1.46 61.1 0 0 254.48 373.33
  Q 250.21 361.54 249.49 350.17
  Q 254.79 347.20 259.36 343.66
  Q 260.55 342.73 263.66 340.96
  Q 265.95 339.65 267.68 337.70
  Z"
/>
<path fill="#00adc0" d="
  M 502.47 360.70
  L 500.32 369.99
  A 1.00 1.00 0.0 0 0 501.95 370.98
  Q 506.10 367.42 509.67 364.43
  C 511.22 363.12 513.48 362.58 514.15 365.09
  A 2.19 2.19 0.0 0 1 513.47 367.32
  Q 505.49 374.21 497.68 381.08
  C 496.64 381.99 496.23 383.05 495.69 384.26
  L 494.41 384.27
  A 0.80 0.78 -77.8 0 0 493.69 384.75
  Q 489.25 395.19 483.67 405.04
  C 481.45 408.95 478.42 412.33 475.64 415.99
  Q 471.56 421.36 469.20 423.91
  Q 457.92 436.12 443.67 444.78
  C 440.48 446.72 436.60 448.45 433.04 450.38
  Q 428.16 453.04 424.92 454.24
  Q 417.95 456.83 407.98 459.68
  Q 399.72 462.05 393.48 462.34
  C 392.74 462.38 391.91 462.94 391.10 462.87
  Q 387.01 462.56 383.15 463.51
  A 0.53 0.53 0.0 0 1 382.50 462.92
  Q 382.57 462.44 383.04 462.04
  Q 392.41 453.86 402.10 445.57
  A 0.41 0.41 0.0 0 0 401.76 444.86
  Q 401.09 444.98 400.96 444.29
  Q 413.67 441.50 423.78 436.56
  Q 462.92 417.47 479.39 377.97
  Q 488.91 371.68 496.59 364.08
  Q 498.04 362.64 502.47 360.70
  Z"
/>
<path fill="#00adc0" d="
  M 273.04 371.41
  Q 278.56 385.42 284.25 394.75
  Q 292.82 408.79 306.62 421.13
  Q 293.73 410.98 284.96 397.06
  A 0.78 0.78 0.0 0 0 283.70 396.97
  Q 282.44 398.49 280.80 399.78
  Q 279.38 400.90 277.94 402.49
  Q 274.92 405.82 270.11 407.51
  L 267.43 403.51
  A 0.88 0.87 -21.8 0 0 266.53 403.13
  C 264.39 403.52 263.25 405.55 262.08 406.50
  Q 257.09 410.55 255.77 411.73
  C 253.28 413.96 249.83 410.93 252.77 408.24
  Q 257.54 403.88 262.53 399.76
  A 1.26 1.26 0.0 0 0 262.97 398.92
  Q 263.23 396.25 261.74 393.52
  Q 259.28 389.01 257.75 383.18
  L 273.04 371.41
  Z"
/>
<path fill="#006cb3" d="
  M 495.69 384.26
  Q 489.81 399.27 482.52 409.51
  Q 445.48 461.59 381.76 465.23
  Q 369.38 465.93 354.30 462.93
  Q 355.19 461.40 355.13 462.44
  L 373.45 446.92
  Q 387.73 447.06 400.96 444.29
  Q 401.09 444.98 401.76 444.86
  A 0.41 0.41 0.0 0 1 402.10 445.57
  Q 392.41 453.86 383.04 462.04
  Q 382.57 462.44 382.50 462.92
  A 0.53 0.53 0.0 0 0 383.15 463.51
  Q 387.01 462.56 391.10 462.87
  C 391.91 462.94 392.74 462.38 393.48 462.34
  Q 399.72 462.05 407.98 459.68
  Q 417.95 456.83 424.92 454.24
  Q 428.16 453.04 433.04 450.38
  C 436.60 448.45 440.48 446.72 443.67 444.78
  Q 457.92 436.12 469.20 423.91
  Q 471.56 421.36 475.64 415.99
  C 478.42 412.33 481.45 408.95 483.67 405.04
  Q 489.25 395.19 493.69 384.75
  A 0.80 0.78 -77.8 0 1 494.41 384.27
  L 495.69 384.26
  Z"
/>
<path fill="#006cb3" d="
  M 306.62 421.13
  L 314.03 426.92
  L 300.45 439.13
  L 297.46 437.47
  Q 297.02 437.23 296.66 437.56
  Q 285.17 448.04 273.30 458.00
  Q 271.12 459.83 269.80 457.43
  A 2.31 2.31 0.0 0 1 270.29 454.58
  L 292.72 434.79
  A 1.03 1.03 0.0 0 0 292.71 433.22
  Q 279.66 422.24 270.11 407.51
  Q 274.92 405.82 277.94 402.49
  Q 279.38 400.90 280.80 399.78
  Q 282.44 398.49 283.70 396.97
  A 0.78 0.78 0.0 0 1 284.96 397.06
  Q 293.73 410.98 306.62 421.13
  Z"
/>
<path fill="#ff49a3" d="
  M 314.03 426.92
  Q 326.34 435.64 339.25 440.33
  Q 340.07 440.63 343.05 441.01
  Q 343.54 441.08 343.93 441.38
  Q 345.68 442.77 348.61 443.23
  Q 344.45 447.76 336.96 454.21
  Q 334.93 455.96 334.69 457.62
  Q 316.09 451.30 300.45 439.13
  L 314.03 426.92
  Z"
/>
<path fill="#ffcb00" d="
  M 348.61 443.23
  L 373.45 446.92
  L 355.13 462.44
  Q 347.84 460.03 340.87 459.46
  L 329.29 469.75
  Q 328.95 470.06 328.49 470.03
  Q 325.95 469.88 325.69 467.23
  Q 325.63 466.66 326.04 466.26
  L 334.69 457.62
  Q 334.93 455.96 336.96 454.21
  Q 344.45 447.76 348.61 443.23
  Z"
/>
<path fill="#7e7e7e" d="
  M 355.13 462.44
  Q 355.19 461.40 354.30 462.93
  Q 347.34 461.95 340.87 459.46
  Q 347.84 460.03 355.13 462.44
  Z"
/>
<path fill="#000000" d="
  M 177.8390 524.1997
  A 18.12 17.70 0.6 0 1 159.5346 541.7090
  A 18.12 17.70 0.6 0 1 141.6010 523.8203
  A 18.12 17.70 0.6 0 1 159.9054 506.3110
  A 18.12 17.70 0.6 0 1 177.8390 524.1997
  Z
  M 173.7976 523.0137
  A 12.80 12.80 0.0 0 0 161.3141 509.9047
  L 158.8149 509.8437
  A 12.80 12.80 0.0 0 0 145.7060 522.3271
  L 145.6424 524.9263
  A 12.80 12.80 0.0 0 0 158.1259 538.0353
  L 160.6251 538.0963
  A 12.80 12.80 0.0 0 0 173.7340 525.6129
  L 173.7976 523.0137
  Z"
/>
<path fill="#000000" d="
  M 268.6978 523.3356
  A 18.13 17.69 -2.1 0 1 251.2282 541.6781
  A 18.13 17.69 -2.1 0 1 232.4622 524.6644
  A 18.13 17.69 -2.1 0 1 249.9318 506.3219
  A 18.13 17.69 -2.1 0 1 268.6978 523.3356
  Z
  M 264.95 524.01
  A 14.38 14.38 0.0 0 0 250.57 509.63
  A 14.38 14.38 0.0 0 0 236.19 524.01
  A 14.38 14.38 0.0 0 0 250.57 538.39
  A 14.38 14.38 0.0 0 0 264.95 524.01
  Z"
/>
<path fill="#000000" d="
  M 309.88 509.12
  Q 310.63 509.49 310.35 510.28
  L 309.56 512.46
  A 0.60 0.59 -64.3 0 1 308.69 512.77
  Q 303.52 509.60 297.96 510.03
  C 281.81 511.29 280.20 534.64 295.89 537.51
  Q 302.96 538.80 309.13 535.36
  Q 309.63 535.08 309.83 535.62
  L 310.68 538.01
  A 0.54 0.53 67.0 0 1 310.42 538.67
  C 296.29 545.89 278.83 539.30 281.49 521.14
  C 283.55 507.07 298.57 503.62 309.88 509.12
  Z"
/>
<path fill="#000000" d="
  M 510.1045 525.5717
  A 15.72 15.72 0.0 0 1 494.3297 541.2367
  L 490.4097 541.2231
  A 15.72 15.72 0.0 0 1 474.7447 525.4483
  L 474.7555 522.3483
  A 15.72 15.72 0.0 0 1 490.5303 506.6833
  L 494.4503 506.6969
  A 15.72 15.72 0.0 0 1 510.1153 522.4717
  L 510.1045 525.5717
  Z
  M 506.5924 522.8177
  A 12.72 12.72 0.0 0 0 494.0063 509.9652
  L 491.2465 509.9363
  A 12.72 12.72 0.0 0 0 478.3940 522.5224
  L 478.3676 525.0423
  A 12.72 12.72 0.0 0 0 490.9537 537.8948
  L 493.7135 537.9237
  A 12.72 12.72 0.0 0 0 506.5660 525.3376
  L 506.5924 522.8177
  Z"
/>
<path fill="#000000" d="
  M 115.29 511.34
  L 115.28 540.36
  Q 115.28 540.99 114.64 540.99
  L 112.24 541.00
  A 0.72 0.72 0.0 0 1 111.52 540.28
  L 111.49 508.51
  A 1.34 1.33 -90.0 0 1 112.82 507.17
  Q 121.24 507.17 129.77 507.12
  Q 131.21 507.11 131.68 507.53
  Q 132.44 508.21 131.89 509.89
  A 0.93 0.92 -81.0 0 1 131.03 510.52
  L 116.03 510.60
  A 0.75 0.74 -0.4 0 0 115.29 511.34
  Z"
/>
<path fill="#000000" d="
  M 214.10 510.70
  L 200.78 510.61
  A 0.60 0.60 0.0 0 0 200.18 511.20
  C 200.07 517.60 200.58 525.06 199.26 530.83
  C 197.83 537.07 194.01 543.17 186.57 540.70
  Q 185.93 540.49 186.13 539.86
  L 186.72 537.92
  A 0.71 0.70 -74.3 0 1 187.56 537.44
  C 194.73 539.24 195.81 529.43 196.10 524.72
  Q 196.62 516.42 196.70 508.23
  A 1.09 1.08 -0.3 0 1 197.78 507.15
  L 217.24 507.07
  Q 218.91 507.06 218.92 508.74
  L 218.98 540.11
  A 0.85 0.85 0.0 0 1 218.11 540.96
  L 215.69 540.91
  A 0.71 0.70 -89.6 0 1 215.00 540.20
  L 215.00 511.60
  Q 214.99 510.71 214.10 510.70
  Z"
/>
<path fill="#000000" d="
  M 375.60 512.18
  L 364.38 528.63
  A 0.58 0.58 0.0 0 1 363.42 528.63
  L 352.48 512.29
  A 0.58 0.58 0.0 0 0 351.42 512.61
  L 351.41 540.40
  A 0.58 0.58 0.0 0 1 350.83 540.98
  L 348.36 540.99
  A 0.58 0.58 0.0 0 1 347.78 540.41
  L 347.76 507.75
  A 0.58 0.58 0.0 0 1 348.33 507.17
  L 352.72 507.10
  A 0.58 0.58 0.0 0 1 353.21 507.36
  L 363.55 522.64
  A 0.58 0.58 0.0 0 0 364.51 522.64
  L 374.93 507.36
  A 0.58 0.58 0.0 0 1 375.42 507.10
  L 379.76 507.17
  A 0.58 0.58 0.0 0 1 380.33 507.75
  L 380.27 540.42
  A 0.58 0.58 0.0 0 1 379.69 541.00
  L 377.12 541.00
  A 0.58 0.58 0.0 0 1 376.54 540.42
  L 376.66 512.51
  A 0.58 0.58 0.0 0 0 375.60 512.18
  Z"
/>
<path fill="#000000" d="
  M 399.87 521.60
  L 413.99 521.65
  A 0.78 0.78 0.0 0 1 414.77 522.45
  L 414.71 524.27
  A 0.78 0.78 0.0 0 1 413.93 525.03
  L 399.89 525.02
  A 0.78 0.78 0.0 0 0 399.11 525.79
  L 399.01 536.70
  A 0.78 0.78 0.0 0 0 399.79 537.49
  L 416.30 537.53
  A 0.78 0.78 0.0 0 1 417.08 538.32
  L 417.04 540.23
  A 0.78 0.78 0.0 0 1 416.26 541.00
  L 396.10 541.00
  A 0.78 0.78 0.0 0 1 395.32 540.22
  L 395.44 507.90
  A 0.78 0.78 0.0 0 1 396.22 507.12
  L 415.48 507.19
  A 0.78 0.78 0.0 0 1 416.25 507.97
  L 416.24 509.79
  A 0.78 0.78 0.0 0 1 415.46 510.56
  L 399.89 510.54
  A 0.78 0.78 0.0 0 0 399.11 511.32
  L 399.09 520.82
  A 0.78 0.78 0.0 0 0 399.87 521.60
  Z"
/>
<path fill="#000000" d="
  M 441.99 511.31
  C 442.12 519.69 443.63 544.38 428.55 540.92
  Q 427.78 540.74 427.94 539.96
  L 428.35 538.02
  Q 428.49 537.37 429.13 537.51
  C 436.10 538.95 437.34 531.04 437.72 525.99
  Q 438.35 517.42 438.16 509.15
  A 2.04 2.04 0.0 0 1 440.21 507.06
  L 459.73 507.17
  A 0.81 0.80 -0.4 0 1 460.54 507.96
  Q 460.73 522.72 460.83 537.50
  Q 460.84 539.21 460.56 540.10
  A 1.89 1.89 0.0 0 1 456.88 539.52
  L 456.88 511.76
  Q 456.88 510.64 455.76 510.64
  L 442.69 510.60
  Q 441.98 510.60 441.99 511.31
  Z"
/>
<path fill="#000000" d="
  M 549.76 541.00
  L 524.21 541.00
  Q 523.67 541.00 523.60 541.53
  L 522.84 547.75
  Q 522.77 548.29 522.24 548.33
  L 520.68 548.48
  A 0.63 0.62 -2.5 0 1 520.00 547.86
  L 520.00 538.04
  Q 520.00 537.66 520.33 537.46
  C 529.47 532.22 528.51 517.49 527.85 508.68
  A 1.44 1.42 87.9 0 1 529.27 507.14
  L 548.95 507.06
  A 1.66 1.66 0.0 0 1 550.62 508.72
  L 550.66 536.33
  A 1.18 1.18 0.0 0 0 551.83 537.51
  L 553.49 537.52
  A 0.77 0.77 0.0 0 1 554.25 538.32
  L 553.95 547.63
  Q 553.92 548.43 553.12 548.41
  L 551.63 548.36
  Q 551.06 548.35 550.99 547.77
  L 550.33 541.51
  Q 550.27 541.00 549.76 541.00
  Z
  M 531.79 511.52
  C 531.80 522.25 531.93 529.39 527.02 536.59
  A 0.59 0.58 -72.7 0 0 527.50 537.51
  L 546.02 537.52
  A 0.80 0.80 0.0 0 0 546.82 536.72
  L 546.90 512.16
  A 1.65 1.64 89.5 0 0 545.22 510.50
  L 532.48 510.80
  A 0.72 0.71 89.2 0 0 531.79 511.52
  Z"
/>
<path fill="#000000" d="
  M 593.04 514.52
  A 0.59 0.58 63.8 0 0 591.99 514.16
  L 571.82 540.50
  A 2.42 2.42 0.0 0 1 567.48 539.03
  L 567.55 507.94
  Q 567.55 507.18 568.31 507.20
  L 570.65 507.25
  Q 571.28 507.26 571.28 507.90
  L 571.28 533.27
  A 0.87 0.87 0.0 0 0 572.84 533.80
  L 592.83 507.59
  A 2.33 2.33 0.0 0 1 597.02 509.01
  L 596.97 540.37
  Q 596.97 541.05 596.29 541.01
  L 593.85 540.88
  Q 593.06 540.84 593.06 540.05
  L 593.04 514.52
  Z"
/>
<path fill="#000000" d="
  M 615.76 534.64
  A 0.43 0.43 0.0 0 0 616.54 534.90
  L 637.25 507.49
  A 2.15 2.15 0.0 0 1 641.12 508.77
  L 641.27 540.10
  Q 641.28 540.73 640.66 540.80
  L 638.44 541.03
  A 0.70 0.70 0.0 0 1 637.66 540.33
  L 637.69 513.78
  A 0.54 0.53 63.7 0 0 636.73 513.45
  L 616.03 540.69
  A 2.29 2.28 63.7 0 1 611.93 539.30
  L 611.90 508.01
  A 0.86 0.86 0.0 0 1 612.74 507.15
  L 614.63 507.12
  A 1.12 1.11 89.5 0 1 615.76 508.24
  L 615.76 534.64
  Z"
/>
</svg>
