<?xml version="1.0" encoding="UTF-8" standalone="no"?>
<!DOCTYPE svg PUBLIC "-//W3C//DTD SVG 1.1//EN" "http://www.w3.org/Graphics/SVG/1.1/DTD/svg11.dtd">
<svg xmlns="http://www.w3.org/2000/svg" version="1.1" viewBox="0.00 0.00 748.00 749.00">
<g stroke-width="2.00" fill="none" stroke-linecap="butt">
<path stroke="#bfa53f" vector-effect="non-scaling-stroke" d="
  M 407.16 212.85
  C 400.37 216.93 393.67 221.98 387.08 227.99"
/>
<path stroke="#ff8a52" vector-effect="non-scaling-stroke" d="
  M 351.28 230.21
  C 357.73 225.60 364.21 221.26 370.71 217.19
  C 370.82 217.12 371.00 217.09 371.24 217.11
  C 371.55 217.13 371.83 217.04 372.07 216.85
  L 381.01 209.69"
/>
<path stroke="#bf6491" vector-effect="non-scaling-stroke" d="
  M 437.52 225.72
  C 431.19 228.21 427.28 232.37 422.18 235.49
  C 421.87 235.68 421.55 235.72 421.20 235.63
  L 407.05 231.63"
/>
<path stroke="#ff8a52" vector-effect="non-scaling-stroke" d="
  M 289.13 271.52
  L 256.14 292.83"
/>
<path stroke="#bf6491" vector-effect="non-scaling-stroke" d="
  M 449.21 232.73
  C 446.21 237.17 441.82 241.04 436.04 244.35"
/>
<path stroke="#bf6491" vector-effect="non-scaling-stroke" d="
  M 486.16 272.58
  C 481.57 275.86 477.35 279.51 473.50 283.53"
/>
<path stroke="#bf6491" vector-effect="non-scaling-stroke" d="
  M 267.68 337.89
  C 266.09 339.31 264.34 340.59 262.43 341.74
  C 260.56 342.86 258.79 344.08 257.11 345.39
  C 254.79 347.20 252.24 348.77 249.45 350.12"
/>
<path stroke="#bf6491" vector-effect="non-scaling-stroke" d="
  M 273.00 371.37
  L 257.73 383.14"
/>
<path stroke="#bfa53f" vector-effect="non-scaling-stroke" d="
  M 269.29 319.44
  L 248.46 335.28"
/>
<path stroke="#bf6491" vector-effect="non-scaling-stroke" d="
  M 497.65 297.61
  L 498.51 304.92
  C 498.54 305.20 498.54 305.48 498.50 305.76
  L 498.33 307.05"
/>
<path stroke="#ff8a52" vector-effect="non-scaling-stroke" d="
  M 498.33 307.05
  L 485.74 318.50"
/>
<path stroke="#bfa53f" vector-effect="non-scaling-stroke" d="
  M 504.68 334.02
  L 503.13 333.63
  C 503.06 333.61 503.00 333.66 503.00 333.73
  C 503.00 333.84 503.00 333.94 503.01 334.05
  C 503.03 334.27 502.93 334.38 502.72 334.38
  L 502.43 334.38
  C 502.14 334.38 501.88 334.47 501.66 334.66
  L 488.25 346.24
  C 488.01 346.45 487.84 346.71 487.75 347.02
  C 487.22 348.78 486.71 351.52 486.22 355.23
  C 485.97 357.16 484.89 361.75 483.00 369.00
  C 482.91 369.35 482.68 369.62 482.31 369.81"
/>
<path stroke="#bfa53f" vector-effect="non-scaling-stroke" d="
  M 340.90 459.41
  L 353.94 462.12
  C 354.84 462.31 355.78 462.07 356.49 461.46
  L 373.46 446.87"
/>
<path stroke="#ff8a52" vector-effect="non-scaling-stroke" d="
  M 348.61 443.23
  C 345.84 446.25 341.95 449.91 336.96 454.21
  C 335.61 455.38 334.85 456.51 334.69 457.62"
/>
<path stroke="#bf6491" vector-effect="non-scaling-stroke" d="
  M 314.07 426.92
  L 300.49 439.15"
/>
<path stroke="#bfa53f" vector-effect="non-scaling-stroke" d="
  M 504.95 326.87
  C 504.42 326.92 503.86 327.34 503.29 328.13
  C 502.95 328.60 502.74 328.55 502.66 327.98
  L 499.67 307.44
  C 499.60 307.02 499.36 306.81 498.93 306.80
  C 498.60 306.80 498.40 306.88 498.33 307.05"
/>
</g>
<path fill="#ffcb00" d="
  M 407.16 212.85
  C 400.37 216.93 393.67 221.98 387.08 227.99
  C 381.78 227.83 376.29 227.85 370.62 228.06
  C 364.66 228.27 357.83 229.72 351.28 230.21
  C 357.73 225.60 364.21 221.26 370.71 217.19
  C 370.82 217.12 371.00 217.09 371.24 217.11
  C 371.55 217.13 371.83 217.04 372.07 216.85
  L 381.01 209.69
  C 382.54 208.47 384.31 208.24 386.33 209.01
  C 387.81 209.57 388.99 209.85 389.88 209.86
  C 391.91 209.89 393.94 209.88 395.97 209.85
  C 396.26 209.84 396.53 209.92 396.78 210.09
  C 397.91 210.86 399.15 211.40 400.51 211.71
  C 400.84 211.79 401.18 211.71 401.45 211.50
  C 406.98 207.30 410.77 204.34 412.84 202.61
  C 415.97 199.98 418.94 203.19 416.55 205.58
  C 414.00 208.13 410.87 210.55 407.16 212.85
  Z"
/>
<path fill="#ff49a3" d="
  M 381.01 209.69
  L 372.07 216.85
  C 371.83 217.04 371.55 217.13 371.24 217.11
  C 371.00 217.09 370.82 217.12 370.71 217.19
  C 364.21 221.26 357.73 225.60 351.28 230.21
  C 325.70 237.24 304.98 251.01 289.13 271.52
  L 256.14 292.83
  L 261.95 279.82
  C 262.09 279.50 261.90 279.13 261.56 279.06
  C 259.84 278.72 258.42 279.20 257.30 280.51
  C 256.46 281.50 254.84 280.94 254.78 279.64
  C 254.73 278.54 255.17 277.60 256.09 276.82
  C 259.96 273.55 263.83 270.25 267.68 266.93
  C 273.21 262.17 279.53 253.60 284.01 248.94
  C 301.04 231.24 321.59 219.33 345.67 213.21
  C 345.85 213.16 346.97 212.97 349.04 212.64
  C 350.67 212.38 352.01 211.63 353.49 211.43
  C 362.38 210.19 371.56 209.61 381.01 209.69
  Z"
/>
<path fill="#7e7e7e" d="
  M 407.16 212.85
  C 412.55 214.44 418.99 216.73 426.50 219.70
  C 430.85 221.43 434.53 223.43 437.52 225.72
  C 431.19 228.21 427.28 232.37 422.18 235.49
  C 421.87 235.68 421.55 235.72 421.20 235.63
  L 407.05 231.63
  C 400.78 229.87 394.12 228.66 387.08 227.99
  C 393.67 221.98 400.37 216.93 407.16 212.85
  Z"
/>
<path fill="#ff49a3" d="
  M 449.21 232.73
  C 446.21 237.17 441.82 241.04 436.04 244.35
  C 432.26 241.76 428.09 239.34 423.52 237.08
  C 421.39 236.03 418.96 236.04 416.65 235.07
  C 412.96 233.50 410.39 232.61 407.05 231.63
  L 421.20 235.63
  C 421.55 235.72 421.87 235.68 422.18 235.49
  C 427.28 232.37 431.19 228.21 437.52 225.72
  L 444.72 229.39
  C 445.56 229.82 446.57 229.72 447.31 229.13
  C 453.51 224.16 459.63 219.36 465.66 214.72
  C 466.99 213.69 468.55 213.77 469.31 215.32
  C 469.56 215.82 469.42 216.42 468.99 216.77
  L 449.21 232.73
  Z"
/>
<path fill="#7e7e7e" d="
  M 449.21 232.73
  C 450.10 233.46 450.93 234.05 451.68 234.50
  C 453.09 235.33 453.94 235.86 454.25 236.10
  C 464.42 244.01 473.40 253.41 481.20 264.30
  C 483.29 267.22 484.94 269.98 486.16 272.58
  C 481.57 275.86 477.35 279.51 473.50 283.53
  C 470.65 279.52 467.82 274.85 465.20 271.42
  C 457.21 260.97 447.49 251.94 436.04 244.35
  C 441.82 241.04 446.21 237.17 449.21 232.73
  Z"
/>
<path fill="#7e7e7e" d="
  M 365.14 407.22
  C 339.07 402.38 318.88 385.57 310.03 360.24
  C 307.78 353.79 306.51 347.05 306.22 340.01
  C 305.17 313.87 318.94 289.02 341.51 275.92
  C 361.25 264.47 382.50 262.98 405.25 271.45
  C 406.58 271.94 408.34 272.80 410.55 274.01
  C 410.93 274.22 410.97 274.47 410.66 274.78
  L 370.33 315.40
  C 369.99 315.74 369.69 315.71 369.42 315.32
  C 359.24 300.50 337.46 305.37 333.75 322.55
  C 331.11 334.81 340.49 345.74 352.81 346.20
  C 362.99 346.57 367.34 341.42 375.21 333.47
  C 384.56 324.04 393.91 314.60 403.25 305.15
  C 403.58 304.82 403.90 304.82 404.23 305.14
  L 429.54 330.10
  C 429.74 330.29 429.74 330.49 429.54 330.69
  L 407.60 352.37
  C 407.31 352.66 407.05 352.63 406.82 352.29
  C 397.52 338.68 374.27 342.49 371.00 359.23
  C 366.78 380.88 392.13 391.59 406.39 376.64
  C 420.05 362.33 434.03 348.35 448.34 334.69
  C 448.53 334.51 448.62 334.55 448.62 334.80
  C 448.82 359.91 439.33 379.69 420.16 394.14
  C 403.62 406.61 385.28 410.97 365.14 407.22
  Z"
/>
<path fill="#ffcb00" d="
  M 289.13 271.52
  C 285.23 278.88 280.35 286.16 277.38 293.02
  C 273.61 301.74 270.92 310.55 269.29 319.44
  L 248.46 335.28
  C 248.42 320.05 250.98 305.90 256.14 292.83
  L 289.13 271.52
  Z"
/>
<path fill="#ff49a3" d="
  M 486.16 272.58
  C 489.74 278.18 492.78 284.38 495.27 291.18
  C 495.57 292.01 496.61 292.27 497.27 291.69
  L 506.92 283.11
  C 507.30 282.77 507.87 282.75 508.28 283.05
  C 510.00 284.34 510.01 285.55 508.36 286.93
  C 503.97 290.60 500.40 294.16 497.65 297.61
  L 498.51 304.92
  C 498.54 305.20 498.54 305.48 498.50 305.76
  L 498.33 307.05
  L 485.74 318.50
  C 483.71 306.31 479.63 294.65 473.50 283.53
  C 477.35 279.51 481.57 275.86 486.16 272.58
  Z"
/>
<path fill="#7e7e7e" d="
  M 497.65 297.61
  C 500.78 306.92 502.82 316.30 503.77 325.75
  C 503.85 326.52 504.24 326.90 504.95 326.87
  C 504.42 326.92 503.86 327.34 503.29 328.13
  C 502.95 328.60 502.74 328.55 502.66 327.98
  L 499.67 307.44
  C 499.60 307.02 499.36 306.81 498.93 306.80
  C 498.60 306.80 498.40 306.88 498.33 307.05
  L 498.50 305.76
  C 498.54 305.48 498.54 305.20 498.51 304.92
  L 497.65 297.61
  Z"
/>
<path fill="#ffcb00" d="
  M 504.95 326.87
  L 507.05 325.59
  C 507.31 325.42 507.50 325.20 507.62 324.92
  C 508.35 323.21 509.73 322.44 511.76 322.63
  C 512.26 322.68 512.65 322.52 512.92 322.14
  C 513.11 321.87 513.34 321.83 513.62 322.00
  C 515.15 322.97 515.61 324.40 514.98 326.31
  C 514.89 326.61 514.69 326.82 514.40 326.93
  C 512.75 327.58 511.27 328.52 509.94 329.73
  C 508.30 331.24 506.24 332.14 504.68 334.02
  L 503.13 333.63
  C 503.06 333.61 503.00 333.66 503.00 333.73
  C 503.00 333.84 503.00 333.94 503.01 334.05
  C 503.03 334.27 502.93 334.38 502.72 334.38
  L 502.43 334.38
  C 502.14 334.38 501.88 334.47 501.66 334.66
  L 488.25 346.24
  C 488.01 346.45 487.84 346.71 487.75 347.02
  C 487.22 348.78 486.71 351.52 486.22 355.23
  C 485.97 357.16 484.89 361.75 483.00 369.00
  C 482.91 369.35 482.68 369.62 482.31 369.81
  C 485.18 359.28 486.74 351.42 486.99 346.25
  C 487.17 342.50 486.75 333.25 485.74 318.50
  L 498.33 307.05
  C 498.40 306.88 498.60 306.80 498.93 306.80
  C 499.36 306.81 499.60 307.02 499.67 307.44
  L 502.66 327.98
  C 502.74 328.55 502.95 328.60 503.29 328.13
  C 503.86 327.34 504.42 326.92 504.95 326.87
  Z"
/>
<path fill="#7e7e7e" d="
  M 269.29 319.44
  L 267.68 337.89
  C 266.09 339.31 264.34 340.59 262.43 341.74
  C 260.56 342.86 258.79 344.08 257.11 345.39
  C 254.79 347.20 252.24 348.77 249.45 350.12
  L 248.46 335.28
  L 269.29 319.44
  Z"
/>
<path fill="#7e7e7e" d="
  M 504.68 334.02
  C 503.70 335.74 505.35 338.45 504.67 339.16
  C 504.46 339.37 504.36 339.63 504.36 339.92
  C 504.30 350.12 502.95 360.15 500.31 370.00
  C 500.06 370.94 501.16 371.64 501.90 371.01
  C 504.77 368.56 507.37 366.36 509.68 364.41
  C 511.24 363.09 513.57 362.58 514.14 365.18
  C 514.32 366.00 514.03 366.85 513.40 367.40
  C 508.27 371.78 503.21 376.20 498.21 380.65
  C 497.14 381.61 496.32 382.79 495.76 384.18
  C 485.73 409.41 469.46 429.47 446.96 444.36
  C 417.81 463.66 381.39 469.75 347.25 461.49
  C 344.72 460.88 342.60 460.18 340.90 459.41
  L 353.94 462.12
  C 354.84 462.31 355.78 462.07 356.49 461.46
  L 373.46 446.87
  C 391.53 447.27 407.96 444.00 422.75 437.05
  C 452.02 423.31 471.87 400.90 482.31 369.81
  C 482.68 369.62 482.91 369.35 483.00 369.00
  C 484.89 361.75 485.97 357.16 486.22 355.23
  C 486.71 351.52 487.22 348.78 487.75 347.02
  C 487.84 346.71 488.01 346.45 488.25 346.24
  L 501.66 334.66
  C 501.88 334.47 502.14 334.38 502.43 334.38
  L 502.72 334.38
  C 502.93 334.38 503.03 334.27 503.01 334.05
  C 503.00 333.94 503.00 333.84 503.00 333.73
  C 503.00 333.66 503.06 333.61 503.13 333.63
  L 504.68 334.02
  Z"
/>
<path fill="#ff49a3" d="
  M 267.68 337.89
  C 267.71 349.44 269.48 360.60 273.00 371.37
  L 257.73 383.14
  L 256.49 379.94
  C 256.23 379.26 255.39 379.04 254.82 379.49
  L 249.25 383.93
  C 248.89 384.22 248.41 384.30 247.97 384.14
  C 245.88 383.41 245.79 381.71 247.39 380.37
  C 249.63 378.49 251.84 376.68 254.03 374.95
  C 254.51 374.57 254.69 373.94 254.48 373.37
  C 251.66 365.52 249.98 357.77 249.45 350.12
  C 252.24 348.77 254.79 347.20 257.11 345.39
  C 258.79 344.08 260.56 342.86 262.43 341.74
  C 264.34 340.59 266.09 339.31 267.68 337.89
  Z"
/>
<path fill="#7e7e7e" d="
  M 273.00 371.37
  C 274.52 374.96 275.98 378.31 277.37 381.41
  C 283.24 394.47 291.21 406.01 301.28 416.04
  C 304.96 419.71 309.72 423.29 314.07 426.92
  L 300.49 439.15
  L 297.52 437.48
  C 297.22 437.31 296.94 437.34 296.68 437.57
  L 273.57 458.18
  C 273.03 458.67 272.27 458.85 271.56 458.67
  C 270.03 458.28 269.37 457.41 269.58 456.05
  C 269.68 455.38 270.09 454.73 270.81 454.10
  C 277.93 447.92 285.15 441.55 292.46 434.99
  C 293.05 434.47 293.04 433.54 292.44 433.03
  C 282.73 424.67 274.56 415.01 267.94 404.05
  C 267.50 403.32 266.60 403.00 265.79 403.30
  C 264.35 403.82 263.25 405.48 262.35 406.25
  C 260.21 408.06 258.07 409.87 255.93 411.69
  C 254.39 412.99 253.05 412.88 251.92 411.36
  C 251.36 410.61 251.44 409.57 252.11 408.91
  C 254.99 406.04 257.95 403.47 260.98 401.20
  C 263.67 399.17 263.90 396.61 261.69 393.51
  C 260.46 391.78 259.14 388.33 257.73 383.14
  L 273.00 371.37
  Z"
/>
<path fill="#ff49a3" d="
  M 314.07 426.92
  C 322.22 432.73 330.61 437.20 339.25 440.33
  C 339.80 440.53 341.06 440.76 343.05 441.01
  C 343.38 441.06 343.67 441.18 343.93 441.38
  C 345.10 442.31 346.66 442.92 348.61 443.23
  C 345.84 446.25 341.95 449.91 336.96 454.21
  C 335.61 455.38 334.85 456.51 334.69 457.62
  C 322.32 453.41 310.92 447.26 300.49 439.15
  L 314.07 426.92
  Z"
/>
<path fill="#ffcb00" d="
  M 348.61 443.23
  C 351.23 443.55 353.88 444.00 356.57 444.58
  C 359.50 445.21 362.15 445.64 364.52 445.86
  C 367.61 446.15 370.59 446.49 373.46 446.87
  L 356.49 461.46
  C 355.78 462.07 354.84 462.31 353.94 462.12
  L 340.90 459.41
  L 329.29 469.75
  C 329.06 469.96 328.79 470.05 328.48 470.03
  C 326.79 469.93 325.86 469.00 325.69 467.23
  C 325.65 466.85 325.77 466.53 326.04 466.26
  L 334.69 457.62
  C 334.85 456.51 335.61 455.38 336.96 454.21
  C 341.95 449.91 345.84 446.25 348.61 443.23
  Z"
/>
<path fill="#000000" d="
  M 177.8390 524.1997
  C 177.74 533.97 169.54 541.81 159.5346 541.7090
  C 149.53 541.60 141.50 533.60 141.6010 523.8203
  C 141.70 514.05 149.90 506.21 159.9054 506.3110
  C 169.91 506.42 177.94 514.42 177.8390 524.1997
  Z
  M 173.7976 523.0137
  C 173.97 515.95 168.38 510.08 161.3141 509.9047
  L 158.8149 509.8437
  C 151.75 509.67 145.88 515.26 145.7060 522.3271
  L 145.6424 524.9263
  C 145.47 531.99 151.06 537.86 158.1259 538.0353
  L 160.6251 538.0963
  C 167.69 538.27 173.56 532.68 173.7340 525.6129
  L 173.7976 523.0137
  Z"
/>
<path fill="#000000" d="
  M 268.6978 523.3356
  C 269.06 533.10 261.23 541.31 251.2282 541.6781
  C 241.22 542.05 232.82 534.43 232.4622 524.6644
  C 232.10 514.90 239.93 506.69 249.9318 506.3219
  C 259.94 505.95 268.34 513.57 268.6978 523.3356
  Z
  M 264.95 524.01
  C 264.95 516.07 258.51 509.63 250.57 509.63
  C 242.63 509.63 236.19 516.07 236.19 524.01
  C 236.19 531.95 242.63 538.39 250.57 538.39
  C 258.51 538.39 264.95 531.95 264.95 524.01
  Z"
/>
<path fill="#000000" d="
  M 309.88 509.12
  C 310.38 509.37 310.54 509.75 310.35 510.28
  L 309.56 512.46
  C 309.43 512.82 309.01 512.97 308.69 512.77
  C 305.24 510.66 301.67 509.74 297.96 510.03
  C 281.81 511.29 280.20 534.64 295.89 537.51
  C 300.60 538.37 305.02 537.65 309.13 535.36
  C 309.46 535.17 309.70 535.26 309.83 535.62
  L 310.68 538.01
  C 310.77 538.27 310.66 538.55 310.42 538.67
  C 296.29 545.89 278.83 539.30 281.49 521.14
  C 283.55 507.07 298.57 503.62 309.88 509.12
  Z"
/>
<path fill="#000000" d="
  M 510.1045 525.5717
  C 510.07 534.25 503.01 541.27 494.3297 541.2367
  L 490.4097 541.2231
  C 481.73 541.19 474.71 534.13 474.7447 525.4483
  L 474.7555 522.3483
  C 474.79 513.67 481.85 506.65 490.5303 506.6833
  L 494.4503 506.6969
  C 503.13 506.73 510.15 513.79 510.1153 522.4717
  L 510.1045 525.5717
  Z
  M 506.5924 522.8177
  C 506.67 515.79 501.03 510.04 494.0063 509.9652
  L 491.2465 509.9363
  C 484.22 509.86 478.47 515.50 478.3940 522.5224
  L 478.3676 525.0423
  C 478.29 532.07 483.93 537.82 490.9537 537.8948
  L 493.7135 537.9237
  C 500.74 538.00 506.49 532.36 506.5660 525.3376
  L 506.5924 522.8177
  Z"
/>
<path fill="#000000" d="
  M 115.29 511.34
  L 115.28 540.36
  C 115.28 540.78 115.07 540.99 114.64 540.99
  L 112.24 541.00
  C 111.84 541.00 111.52 540.68 111.52 540.28
  L 111.49 508.51
  C 111.49 507.77 112.09 507.17 112.82 507.17
  C 118.43 507.17 124.08 507.15 129.77 507.12
  C 130.73 507.11 131.37 507.25 131.68 507.53
  C 132.19 507.98 132.26 508.77 131.89 509.89
  C 131.76 510.26 131.42 510.51 131.03 510.52
  L 116.03 510.60
  C 115.62 510.61 115.29 510.94 115.29 511.34
  Z"
/>
<path fill="#000000" d="
  M 214.10 510.70
  L 200.78 510.61
  C 200.45 510.61 200.19 510.87 200.18 511.20
  C 200.07 517.60 200.58 525.06 199.26 530.83
  C 197.83 537.07 194.01 543.17 186.57 540.70
  C 186.14 540.56 186.00 540.28 186.13 539.86
  L 186.72 537.92
  C 186.83 537.56 187.20 537.35 187.56 537.44
  C 194.73 539.24 195.81 529.43 196.10 524.72
  C 196.45 519.19 196.65 513.69 196.70 508.23
  C 196.70 507.64 197.18 507.16 197.78 507.15
  L 217.24 507.07
  C 218.35 507.06 218.91 507.62 218.92 508.74
  L 218.98 540.11
  C 218.98 540.59 218.59 540.97 218.11 540.96
  L 215.69 540.91
  C 215.31 540.90 215.00 540.59 215.00 540.20
  L 215.00 511.60
  C 214.99 511.01 214.69 510.71 214.10 510.70
  Z"
/>
<path fill="#000000" d="
  M 375.60 512.18
  L 364.38 528.63
  C 364.15 528.97 363.65 528.97 363.42 528.63
  L 352.48 512.29
  C 352.16 511.81 351.42 512.03 351.42 512.61
  L 351.41 540.40
  C 351.41 540.72 351.15 540.98 350.83 540.98
  L 348.36 540.99
  C 348.04 540.99 347.78 540.73 347.78 540.41
  L 347.76 507.75
  C 347.76 507.43 348.01 507.18 348.33 507.17
  L 352.72 507.10
  C 352.91 507.10 353.10 507.20 353.21 507.36
  L 363.55 522.64
  C 363.78 522.98 364.28 522.98 364.51 522.64
  L 374.93 507.36
  C 375.04 507.20 375.23 507.10 375.42 507.10
  L 379.76 507.17
  C 380.08 507.18 380.33 507.43 380.33 507.75
  L 380.27 540.42
  C 380.27 540.74 380.01 541.00 379.69 541.00
  L 377.12 541.00
  C 376.80 541.00 376.54 540.74 376.54 540.42
  L 376.66 512.51
  C 376.66 511.94 375.93 511.71 375.60 512.18
  Z"
/>
<path fill="#000000" d="
  M 399.87 521.60
  L 413.99 521.65
  C 414.43 521.65 414.78 522.01 414.77 522.45
  L 414.71 524.27
  C 414.70 524.69 414.35 525.03 413.93 525.03
  L 399.89 525.02
  C 399.46 525.02 399.12 525.36 399.11 525.79
  L 399.01 536.70
  C 399.00 537.14 399.35 537.49 399.79 537.49
  L 416.30 537.53
  C 416.73 537.53 417.08 537.89 417.08 538.32
  L 417.04 540.23
  C 417.04 540.66 416.69 541.00 416.26 541.00
  L 396.10 541.00
  C 395.67 541.00 395.32 540.65 395.32 540.22
  L 395.44 507.90
  C 395.44 507.47 395.79 507.12 396.22 507.12
  L 415.48 507.19
  C 415.91 507.19 416.26 507.54 416.25 507.97
  L 416.24 509.79
  C 416.23 510.21 415.88 510.56 415.46 510.56
  L 399.89 510.54
  C 399.46 510.54 399.11 510.89 399.11 511.32
  L 399.09 520.82
  C 399.09 521.25 399.44 521.60 399.87 521.60
  Z"
/>
<path fill="#000000" d="
  M 441.99 511.31
  C 442.12 519.69 443.63 544.38 428.55 540.92
  C 428.04 540.80 427.83 540.48 427.94 539.96
  L 428.35 538.02
  C 428.44 537.59 428.70 537.42 429.13 537.51
  C 436.10 538.95 437.34 531.04 437.72 525.99
  C 438.14 520.28 438.29 514.66 438.16 509.15
  C 438.13 508.00 439.06 507.05 440.21 507.06
  L 459.73 507.17
  C 460.17 507.17 460.53 507.52 460.54 507.96
  C 460.67 517.80 460.76 527.65 460.83 537.50
  C 460.84 538.64 460.75 539.51 460.56 540.10
  C 460.27 540.98 459.39 541.53 458.47 541.38
  C 457.56 541.24 456.88 540.45 456.88 539.52
  L 456.88 511.76
  C 456.88 511.01 456.51 510.64 455.76 510.64
  L 442.69 510.60
  C 442.22 510.60 441.98 510.84 441.99 511.31
  Z"
/>
<path fill="#000000" d="
  M 549.76 541.00
  L 524.21 541.00
  C 523.85 541.00 523.65 541.18 523.60 541.53
  L 522.84 547.75
  C 522.79 548.11 522.59 548.30 522.24 548.33
  L 520.68 548.48
  C 520.31 548.51 520.00 548.23 520.00 547.86
  L 520.00 538.04
  C 520.00 537.79 520.11 537.59 520.33 537.46
  C 529.47 532.22 528.51 517.49 527.85 508.68
  C 527.79 507.85 528.44 507.14 529.27 507.14
  L 548.95 507.06
  C 549.87 507.05 550.62 507.80 550.62 508.72
  L 550.66 536.33
  C 550.66 536.98 551.18 537.50 551.83 537.51
  L 553.49 537.52
  C 553.92 537.53 554.27 537.89 554.25 538.32
  L 553.95 547.63
  C 553.93 548.16 553.65 548.42 553.12 548.41
  L 551.63 548.36
  C 551.25 548.35 551.04 548.16 550.99 547.77
  L 550.33 541.51
  C 550.29 541.17 550.10 541.00 549.76 541.00
  Z
  M 531.79 511.52
  C 531.80 522.25 531.93 529.39 527.02 536.59
  C 526.75 536.98 527.03 537.51 527.50 537.51
  L 546.02 537.52
  C 546.46 537.52 546.82 537.16 546.82 536.72
  L 546.90 512.16
  C 546.91 511.23 546.15 510.48 545.22 510.50
  L 532.48 510.80
  C 532.10 510.81 531.79 511.13 531.79 511.52
  Z"
/>
<path fill="#000000" d="
  M 593.04 514.52
  C 593.04 513.96 592.33 513.72 591.99 514.16
  L 571.82 540.50
  C 570.41 542.34 567.47 541.34 567.48 539.03
  L 567.55 507.94
  C 567.55 507.43 567.80 507.19 568.31 507.20
  L 570.65 507.25
  C 571.07 507.26 571.28 507.47 571.28 507.90
  L 571.28 533.27
  C 571.28 534.10 572.33 534.46 572.84 533.80
  L 592.83 507.59
  C 594.19 505.81 597.02 506.78 597.02 509.01
  L 596.97 540.37
  C 596.97 540.82 596.74 541.04 596.29 541.01
  L 593.85 540.88
  C 593.32 540.85 593.06 540.58 593.06 540.05
  L 593.04 514.52
  Z"
/>
<path fill="#000000" d="
  M 615.76 534.64
  C 615.76 535.06 616.29 535.23 616.54 534.90
  L 637.25 507.49
  C 638.49 505.85 641.11 506.71 641.12 508.77
  L 641.27 540.10
  C 641.28 540.52 641.07 540.75 640.66 540.80
  L 638.44 541.03
  C 638.02 541.08 637.66 540.75 637.66 540.33
  L 637.69 513.78
  C 637.69 513.27 637.04 513.04 636.73 513.45
  L 616.03 540.69
  C 614.71 542.43 611.93 541.49 611.93 539.30
  L 611.90 508.01
  C 611.90 507.54 612.27 507.16 612.74 507.15
  L 614.63 507.12
  C 615.25 507.11 615.76 507.61 615.76 508.24
  L 615.76 534.64
  Z"
/>
</svg>
